<svg version="1.1" id="Layer_1" xmlns="http://www.w3.org/2000/svg" xmlns:xlink="http://www.w3.org/1999/xlink" x="0px" y="0px"
	 width="100%" viewBox="0 0 500 500" enable-background="new 0 0 500 500" xml:space="preserve">
<path fill="#FEFEFE" opacity="1.000000" stroke="none" 
	d="
M245.000000,1.000000 
	C249.690323,1.000000 254.380661,1.000000 259.562439,1.468001 
	C260.053864,37.668919 260.053864,73.401833 260.053864,108.815208 
	C271.996368,111.091568 283.340912,113.253944 295.135406,115.502090 
	C307.837036,82.479912 320.682159,49.084759 333.668732,15.321809 
	C318.608795,9.886829 303.647125,6.314207 288.361481,3.978549 
	C282.232391,3.042020 276.119995,1.996120 270.000000,1.000000 
	C346.983032,1.000000 423.966095,1.000000 500.974548,1.000000 
	C500.974548,167.613007 500.974548,334.226013 500.974548,500.919495 
	C334.423737,500.919495 167.847427,500.919495 1.135557,500.919495 
	C1.135557,334.333405 1.135557,167.666718 1.135557,1.000000 
	C77.435081,1.000000 153.751511,1.000000 230.344391,1.373004 
	C210.082550,3.780662 189.867905,7.304712 170.088882,14.581544 
	C183.179092,48.324848 196.136887,81.726837 208.919601,114.677490 
	C221.160736,112.577354 232.847183,110.572388 244.733688,108.533089 
	C244.733688,82.758430 244.709137,57.110165 244.745895,31.461985 
	C244.760437,21.307888 244.911240,11.153989 245.000000,1.000000 
M293.932220,289.173218 
	C296.186249,289.063965 298.440277,288.954712 300.998779,288.830688 
	C300.998779,285.295807 300.998779,282.195435 301.575775,279.282227 
	C301.978760,279.314514 302.381775,279.346802 303.012634,280.063019 
	C304.140930,284.138367 307.722748,282.029297 310.214996,283.834229 
	C310.219666,293.782654 310.261993,303.731323 310.197845,313.679291 
	C310.184753,315.713287 310.242401,317.374207 313.101166,317.903137 
	C316.059998,322.508728 320.071014,318.944946 324.164062,320.002869 
	C324.164062,307.035187 324.164062,294.805786 324.164062,282.406677 
	C327.628235,282.190125 330.531738,282.008636 334.084290,281.786591 
	C332.437195,278.604004 336.994324,274.284821 330.785980,272.181061 
	C330.144775,271.462189 329.512665,270.126862 328.861023,270.117279 
	C319.595245,269.981110 310.326813,270.024445 300.705841,270.024445 
	C300.705841,272.558167 300.705841,274.691711 300.062317,276.970825 
	C299.415375,276.950958 298.768402,276.931122 297.776794,276.329376 
	C290.805634,266.802551 277.416656,266.173920 269.344757,274.836884 
	C268.191437,274.227325 267.038086,273.617798 265.662567,272.209473 
	C264.851349,271.481415 264.052551,270.137482 263.227020,270.120850 
	C255.306595,269.961029 247.381653,270.025238 238.958145,270.025238 
	C238.958145,285.252930 238.916046,300.118927 239.083633,314.982574 
	C239.091934,315.718323 240.926376,316.433472 241.979080,317.990814 
	C242.547562,318.644714 243.107590,319.859467 243.685776,319.868164 
	C251.900101,319.992065 260.116882,319.952576 268.036102,319.952576 
	C268.792633,316.879639 269.392456,314.443146 270.346161,312.562256 
	C272.177338,314.137512 274.008484,315.712738 276.047028,317.963837 
	C282.443542,322.400574 289.250549,322.124512 295.793671,318.839600 
	C302.799957,315.322113 304.029541,302.356659 297.921692,296.268433 
	C295.953430,294.486633 293.985138,292.704803 292.197815,290.481506 
	C292.481812,290.097961 292.765808,289.714386 293.932220,289.173218 
M294.924988,196.155365 
	C297.137604,196.048828 299.350189,195.942307 303.176331,195.758087 
	C301.700348,191.534073 300.520966,188.158997 299.097992,184.128464 
	C294.759888,177.341293 288.619019,174.744659 280.455902,176.245819 
	C273.451050,177.533966 270.739197,180.546936 268.697021,188.628983 
	C267.617554,187.345474 266.538086,186.061966 265.164917,184.143509 
	C263.023712,180.292023 259.832306,177.562897 255.437073,177.317398 
	C249.063690,176.961395 242.655640,177.226151 235.835022,177.226151 
	C235.835022,181.325180 235.835022,185.098618 235.374756,188.429413 
	C234.331726,186.910538 233.288712,185.391647 231.889938,183.289688 
	C231.081955,182.241653 230.410934,181.041489 229.443481,180.170593 
	C223.726562,175.024200 217.027771,174.986633 210.305695,177.270218 
	C204.213699,179.339783 202.636047,184.487869 202.722534,190.443939 
	C202.818939,197.081116 202.914124,203.726364 202.695892,210.357773 
	C202.475220,217.063614 205.062012,221.890488 211.240997,225.524689 
	C220.752487,231.222122 231.217834,228.071640 235.917953,218.957489 
	C236.407928,220.980301 234.434860,224.420868 238.988739,224.981476 
	C239.563416,225.634644 240.132523,226.848862 240.713638,226.854614 
	C246.868591,226.915649 253.062073,227.165192 259.169403,226.577545 
	C263.529419,226.158035 266.738831,223.403717 268.136932,218.927139 
	C268.458862,217.896378 269.295105,217.026260 270.054901,216.764038 
	C272.309387,219.284760 274.563904,221.805466 276.998322,225.009354 
	C283.015930,229.478653 289.570740,229.018677 295.821136,226.176086 
	C303.057007,222.885315 304.823853,209.610260 298.869843,203.293900 
	C296.919159,201.500809 294.968445,199.707718 293.202454,197.476685 
	C293.482269,197.092255 293.762085,196.707840 294.924988,196.155365 
M216.345016,271.861664 
	C212.978439,271.013550 209.611877,270.165405 205.706299,269.181488 
	C205.706299,273.665649 205.706299,276.747223 205.095444,279.832428 
	C204.166611,279.161316 203.237762,278.490204 202.034409,277.177917 
	C197.303833,269.812805 190.080688,267.233704 181.407593,269.812897 
	C174.653503,271.821442 172.363220,275.768677 172.339340,285.500244 
	C172.324661,291.481201 172.245255,297.464050 172.360703,303.442810 
	C172.533203,312.374756 176.448410,317.310760 185.189499,319.211670 
	C189.193649,320.082458 193.093964,320.830505 196.123611,324.818268 
	C198.928116,328.764679 202.840012,326.467316 206.316299,326.626007 
	C205.954208,325.757019 205.592133,324.888062 205.127853,323.328094 
	C204.042892,321.589478 202.957932,319.850891 201.976089,317.374969 
	C203.300278,314.265137 204.624481,311.155273 206.093384,308.741547 
	C209.521851,317.117767 215.619019,320.057281 225.579559,318.136047 
	C232.449310,316.810974 236.158981,311.736115 236.218323,303.448364 
	C236.266022,296.787476 236.228836,290.125977 236.229126,283.464752 
	C236.229309,279.053650 236.229156,274.642548 236.229156,270.293945 
	C231.788940,270.293945 228.526657,270.293945 224.949478,270.293945 
	C224.949478,281.360535 224.940994,292.154938 224.954178,302.949310 
	C224.958649,306.609039 224.098373,309.345123 219.551712,307.376923 
	C219.576889,297.276672 219.543365,287.175690 219.669357,277.076691 
	C219.700043,274.617645 219.390503,272.797363 216.345016,271.861664 
M113.984512,343.479279 
	C120.981628,338.147339 127.978745,332.815399 134.643799,327.736511 
	C129.087662,316.623016 123.695786,305.838104 118.031708,294.508728 
	C83.965118,304.246735 49.553303,314.083405 14.820630,324.011810 
	C22.969618,348.929382 33.928394,371.743774 49.368561,392.614990 
	C71.058868,376.128143 92.241890,360.026917 113.984512,343.479279 
M218.139099,392.678314 
	C218.546432,390.275726 218.953751,387.873138 219.286530,385.910278 
	C207.586792,381.500702 196.443726,377.300934 184.801697,372.913116 
	C166.147598,403.123016 147.302429,433.642365 128.289886,464.432770 
	C150.870087,477.278839 174.232468,486.362823 199.563202,491.603821 
	C205.783203,458.552979 211.900696,426.046844 218.139099,392.678314 
M65.342628,163.146301 
	C52.459488,156.731186 39.576347,150.316071 26.711565,143.910110 
	C16.699915,162.772293 6.189787,199.152359 5.548083,217.281815 
	C41.233669,220.509995 76.953331,223.741257 112.307564,226.939453 
	C115.818832,215.133408 119.206650,203.742447 122.730034,191.895645 
	C104.020828,182.534805 85.007912,173.022018 65.342628,163.146301 
M285.084656,460.368805 
	C280.577972,436.232697 276.071259,412.096588 271.653320,388.435791 
	C259.056854,388.435791 247.127075,388.435791 234.844406,388.435791 
	C228.208298,423.619965 221.561722,458.859772 214.921722,494.064636 
	C230.943420,498.438995 279.093140,497.743774 291.245178,492.963165 
	C289.245758,482.424347 287.233887,471.819794 285.084656,460.368805 
M59.738903,237.881821 
	C41.242702,236.179001 22.746498,234.476181 4.299331,232.777878 
	C1.352639,251.028595 5.648839,296.659271 11.440402,308.535675 
	C45.864265,298.621002 80.365791,288.683960 113.957710,279.008911 
	C112.865479,266.391205 111.851982,254.683136 110.789780,242.412292 
	C94.361900,240.947220 77.510208,239.444351 59.738903,237.881821 
M314.976166,107.493660 
	C313.229218,112.117371 311.482300,116.741081 309.881165,120.978958 
	C320.360382,127.625374 330.397400,133.991318 340.605194,140.465591 
	C364.689514,114.102806 388.879639,87.624184 413.108307,61.103371 
	C393.419769,43.903328 372.011200,30.840832 348.370605,20.566603 
	C337.164429,49.687580 326.184631,78.220245 314.976166,107.493660 
M65.511375,400.001038 
	C63.309692,401.728851 61.108013,403.456696 58.923271,405.171204 
	C70.093338,420.817932 100.368454,448.126282 115.149879,455.854553 
	C133.993851,425.410065 152.853775,394.939850 171.455338,364.887024 
	C162.060364,356.358276 153.238083,348.349426 144.280197,340.217468 
	C118.316528,359.915863 92.190605,379.737335 65.511375,400.001038 
M402.031525,369.456909 
	C387.960663,358.873383 373.889801,348.289825 360.118866,337.931885 
	C351.111908,346.424622 342.456177,354.586182 333.617737,362.920013 
	C352.404266,393.330750 371.229919,423.804779 390.117920,454.379761 
	C411.509888,439.518127 430.017883,422.714844 445.925476,402.470306 
	C431.289673,391.470581 416.940887,380.686554 402.031525,369.456909 
M90.983955,158.521866 
	C104.171303,165.057556 117.358650,171.593262 130.053085,177.884659 
	C137.675247,167.972351 144.923264,158.546585 152.354233,148.882904 
	C128.455414,122.745911 104.350380,96.383392 80.014427,69.768318 
	C61.472515,87.706314 45.987988,107.383118 33.666653,130.031219 
	C52.864731,139.560333 71.598083,148.858780 90.983955,158.521866 
M483.934387,162.581650 
	C481.677155,157.083145 479.419922,151.584625 477.008392,145.710281 
	C444.372833,162.035889 412.203461,178.128296 380.635376,193.919907 
	C383.953186,205.636307 387.105682,216.769012 390.406616,228.425766 
	C425.790192,225.062546 461.446594,221.673386 497.446045,218.251633 
	C494.922974,198.888550 490.696899,180.835312 483.934387,162.581650 
M302.483002,379.051483 
	C297.355957,380.870697 292.228943,382.689941 286.842712,384.601166 
	C293.513367,419.933075 300.162354,455.150391 306.890320,490.786011 
	C332.004181,484.707733 355.081970,475.774078 376.754730,462.601959 
	C357.718475,431.780518 338.875275,401.271637 320.112122,370.892365 
	C314.051300,373.737854 308.634308,376.281036 302.483002,379.051483 
M433.403381,149.963257 
	C445.553802,143.906433 457.704193,137.849625 469.975494,131.732529 
	C457.609070,109.381393 443.022736,89.313721 424.619049,71.878113 
	C400.190186,98.538658 375.966064,124.975746 352.159241,150.957443 
	C359.572479,160.829391 366.534363,170.100311 373.726654,179.678040 
	C393.234802,169.949738 412.976746,160.104874 433.403381,149.963257 
M174.723328,69.780701 
	C168.307297,53.281971 161.891251,36.783245 155.344757,19.949047 
	C132.005905,30.220491 110.621529,42.614101 91.577148,59.309589 
	C116.167786,86.214905 140.374451,112.700111 164.262512,138.836716 
	C174.573914,132.572708 184.304932,126.661285 194.306366,120.585587 
	C187.878616,103.942352 181.423767,87.228928 174.723328,69.780701 
M499.000397,264.368286 
	C499.000397,254.279526 499.000397,244.190781 499.000397,233.739655 
	C462.668762,237.202850 426.991760,240.603638 391.790680,243.959076 
	C390.724396,255.920303 389.724457,267.137299 388.673126,278.930939 
	C422.730743,288.732056 457.259155,298.668610 493.157593,308.999451 
	C495.169830,293.862671 497.066437,279.595795 499.000397,264.368286 
M385.156372,337.338776 
	C408.418427,354.819885 431.680450,372.300995 455.175690,389.957336 
	C469.333160,369.145203 480.350250,347.355225 487.907867,323.470886 
	C453.104431,313.521851 418.779938,303.709747 384.580597,293.933411 
	C379.421600,304.527527 374.434692,314.768311 369.286621,325.340027 
	C374.264435,329.109558 379.421387,333.014740 385.156372,337.338776 
z"/>
<path fill="#1C4B6C" opacity="1.000000" stroke="none" 
	d="
M244.535370,1.000000 
	C244.911240,11.153989 244.760437,21.307888 244.745895,31.461985 
	C244.709137,57.110165 244.733688,82.758430 244.733688,108.533089 
	C232.847183,110.572388 221.160736,112.577354 208.919601,114.677490 
	C196.136887,81.726837 183.179092,48.324848 170.088882,14.581544 
	C189.867905,7.304712 210.082550,3.780662 230.810425,1.373004 
	C235.356903,1.000000 239.713806,1.000000 244.535370,1.000000 
z"/>
<path fill="#E6253D" opacity="1.000000" stroke="none" 
	d="
M269.545898,1.000000 
	C276.119995,1.996120 282.232391,3.042020 288.361481,3.978549 
	C303.647125,6.314207 318.608795,9.886829 333.668732,15.321809 
	C320.682159,49.084759 307.837036,82.479912 295.135406,115.502090 
	C283.340912,113.253944 271.996368,111.091568 260.053864,108.815208 
	C260.053864,73.401833 260.053864,37.668919 260.026917,1.468001 
	C263.030609,1.000000 266.061188,1.000000 269.545898,1.000000 
z"/>
<path fill="#C99B2E" opacity="1.000000" stroke="none" 
	d="
M113.704712,343.702484 
	C92.241890,360.026917 71.058868,376.128143 49.368561,392.614990 
	C33.928394,371.743774 22.969618,348.929382 14.820630,324.011810 
	C49.553303,314.083405 83.965118,304.246735 118.031708,294.508728 
	C123.695786,305.838104 129.087662,316.623016 134.643799,327.736511 
	C127.978745,332.815399 120.981628,338.147339 113.704712,343.702484 
z"/>
<path fill="#DE1969" opacity="1.000000" stroke="none" 
	d="
M218.078644,393.109528 
	C211.900696,426.046844 205.783203,458.552979 199.563202,491.603821 
	C174.232468,486.362823 150.870087,477.278839 128.289886,464.432770 
	C147.302429,433.642365 166.147598,403.123016 184.801697,372.913116 
	C196.443726,377.300934 207.586792,381.500702 219.286530,385.910278 
	C218.953751,387.873138 218.546432,390.275726 218.078644,393.109528 
z"/>
<path fill="#1A97D4" opacity="1.000000" stroke="none" 
	d="
M65.668816,163.327759 
	C85.007912,173.022018 104.020828,182.534805 122.730034,191.895645 
	C119.206650,203.742447 115.818832,215.133408 112.307564,226.939453 
	C76.953331,223.741257 41.233669,220.509995 5.548083,217.281815 
	C6.189787,199.152359 16.699915,162.772293 26.711565,143.910110 
	C39.576347,150.316071 52.459488,156.731186 65.668816,163.327759 
z"/>
<path fill="#ED6A31" opacity="1.000000" stroke="none" 
	d="
M285.153320,460.792053 
	C287.233887,471.819794 289.245758,482.424347 291.245178,492.963165 
	C279.093140,497.743774 230.943420,498.438995 214.921722,494.064636 
	C221.561722,458.859772 228.208298,423.619965 234.844406,388.435791 
	C247.127075,388.435791 259.056854,388.435791 271.653320,388.435791 
	C276.071259,412.096588 280.577972,436.232697 285.153320,460.792053 
z"/>
<path fill="#408046" opacity="1.000000" stroke="none" 
	d="
M60.198708,237.911652 
	C77.510208,239.444351 94.361900,240.947220 110.789780,242.412292 
	C111.851982,254.683136 112.865479,266.391205 113.957710,279.008911 
	C80.365791,288.683960 45.864265,298.621002 11.440402,308.535675 
	C5.648839,296.659271 1.352639,251.028595 4.299331,232.777878 
	C22.746498,234.476181 41.242702,236.179001 60.198708,237.911652 
z"/>
<path fill="#E5B736" opacity="1.000000" stroke="none" 
	d="
M315.090515,107.123276 
	C326.184631,78.220245 337.164429,49.687580 348.370605,20.566603 
	C372.011200,30.840832 393.419769,43.903328 413.108307,61.103371 
	C388.879639,87.624184 364.689514,114.102806 340.605194,140.465591 
	C330.397400,133.991318 320.360382,127.625374 309.881165,120.978958 
	C311.482300,116.741081 313.229218,112.117371 315.090515,107.123276 
z"/>
<path fill="#F59E2E" opacity="1.000000" stroke="none" 
	d="
M65.788025,399.779907 
	C92.190605,379.737335 118.316528,359.915863 144.280197,340.217468 
	C153.238083,348.349426 162.060364,356.358276 171.455338,364.887024 
	C152.853775,394.939850 133.993851,425.410065 115.149879,455.854553 
	C100.368454,448.126282 70.093338,420.817932 58.923271,405.171204 
	C61.108013,403.456696 63.309692,401.728851 65.788025,399.779907 
z"/>
<path fill="#FCC311" opacity="1.000000" stroke="none" 
	d="
M402.311829,369.679688 
	C416.940887,380.686554 431.289673,391.470581 445.925476,402.470306 
	C430.017883,422.714844 411.509888,439.518127 390.117920,454.379761 
	C371.229919,423.804779 352.404266,393.330750 333.617737,362.920013 
	C342.456177,354.586182 351.111908,346.424622 360.118866,337.931885 
	C373.889801,348.289825 387.960663,358.873383 402.311829,369.679688 
z"/>
<path fill="#64B336" opacity="1.000000" stroke="none" 
	d="
M90.657700,158.339539 
	C71.598083,148.858780 52.864731,139.560333 33.666653,130.031219 
	C45.987988,107.383118 61.472515,87.706314 80.014427,69.768318 
	C104.350380,96.383392 128.455414,122.745911 152.354233,148.882904 
	C144.923264,158.546585 137.675247,167.972351 130.053085,177.884659 
	C117.358650,171.593262 104.171303,165.057556 90.657700,158.339539 
z"/>
<path fill="#C61E30" opacity="1.000000" stroke="none" 
	d="
M484.035370,162.959808 
	C490.696899,180.835312 494.922974,198.888550 497.446045,218.251633 
	C461.446594,221.673386 425.790192,225.062546 390.406616,228.425766 
	C387.105682,216.769012 383.953186,205.636307 380.635376,193.919907 
	C412.203461,178.128296 444.372833,162.035889 477.008392,145.710281 
	C479.419922,151.584625 481.677155,157.083145 484.035370,162.959808 
z"/>
<path fill="#A41C44" opacity="1.000000" stroke="none" 
	d="
M302.850159,378.937866 
	C308.634308,376.281036 314.051300,373.737854 320.112122,370.892365 
	C338.875275,401.271637 357.718475,431.780518 376.754730,462.601959 
	C355.081970,475.774078 332.004181,484.707733 306.890320,490.786011 
	C300.162354,455.150391 293.513367,419.933075 286.842712,384.601166 
	C292.228943,382.689941 297.355957,380.870697 302.850159,378.937866 
z"/>
<path fill="#4D9F38" opacity="1.000000" stroke="none" 
	d="
M433.061035,150.111633 
	C412.976746,160.104874 393.234802,169.949738 373.726654,179.678040 
	C366.534363,170.100311 359.572479,160.829391 352.159241,150.957443 
	C375.966064,124.975746 400.190186,98.538658 424.619049,71.878113 
	C443.022736,89.313721 457.609070,109.381393 469.975494,131.732529 
	C457.704193,137.849625 445.553802,143.906433 433.061035,150.111633 
z"/>
<path fill="#046A9F" opacity="1.000000" stroke="none" 
	d="
M174.846130,70.148102 
	C181.423767,87.228928 187.878616,103.942352 194.306366,120.585587 
	C184.304932,126.661285 174.573914,132.572708 164.262512,138.836716 
	C140.374451,112.700111 116.167786,86.214905 91.577148,59.309589 
	C110.621529,42.614101 132.005905,30.220491 155.344757,19.949047 
	C161.891251,36.783245 168.307297,53.281971 174.846130,70.148102 
z"/>
<path fill="#E8432F" opacity="1.000000" stroke="none" 
	d="
M498.981689,264.848633 
	C497.066437,279.595795 495.169830,293.862671 493.157593,308.999451 
	C457.259155,298.668610 422.730743,288.732056 388.673126,278.930939 
	C389.724457,267.137299 390.724396,255.920303 391.790680,243.959076 
	C426.991760,240.603638 462.668762,237.202850 499.000397,233.739655 
	C499.000397,244.190781 499.000397,254.279526 498.981689,264.848633 
z"/>
<path fill="#2FBCE0" opacity="1.000000" stroke="none" 
	d="
M384.867371,337.129333 
	C379.421387,333.014740 374.264435,329.109558 369.286621,325.340027 
	C374.434692,314.768311 379.421600,304.527527 384.580597,293.933411 
	C418.779938,303.709747 453.104431,313.521851 487.907867,323.470886 
	C480.350250,347.355225 469.333160,369.145203 455.175690,389.957336 
	C431.680450,372.300995 408.418427,354.819885 384.867371,337.129333 
z"/>
<path fill="#3D3939" opacity="1.000000" stroke="none" 
	d="
M201.872955,318.112274 
	C202.957932,319.850891 204.042892,321.589478 204.712952,323.615112 
	C201.520233,323.955444 198.742401,324.008728 195.964569,324.062012 
	C193.093964,320.830505 189.193649,320.082458 185.189499,319.211670 
	C176.448410,317.310760 172.533203,312.374756 172.360703,303.442810 
	C172.245255,297.464050 172.324661,291.481201 172.339340,285.500244 
	C172.363220,275.768677 174.653503,271.821442 181.407593,269.812897 
	C190.080688,267.233704 197.303833,269.812805 202.056458,277.967316 
	C202.130600,286.419891 202.446411,294.093872 202.134323,301.742188 
	C201.951538,306.221527 200.767654,310.660034 200.034103,315.116943 
	C199.589661,315.126404 199.145218,315.135895 198.700775,315.145386 
	C199.758163,316.134369 200.815567,317.123322 201.872955,318.112274 
M186.414276,308.592773 
	C188.143478,307.486389 191.332581,306.423615 191.367157,305.266602 
	C191.608459,297.190125 191.196762,289.094147 190.955460,280.294891 
	C189.229294,279.753906 187.122421,278.353455 185.879745,278.903900 
	C184.528351,279.502563 183.278931,281.882416 183.204514,283.540405 
	C182.906128,290.189056 182.906601,296.866821 183.207291,303.515198 
	C183.278809,305.096649 184.939590,306.606232 186.414276,308.592773 
z"/>
<path fill="#3C3737" opacity="1.000000" stroke="none" 
	d="
M235.835022,188.872055 
	C235.835022,185.098618 235.835022,181.325180 235.835022,177.226151 
	C242.655640,177.226151 249.063690,176.961395 255.437073,177.317398 
	C259.832306,177.562897 263.023712,180.292023 265.225586,184.880539 
	C265.461761,194.717026 266.094238,203.838089 265.665802,212.909012 
	C265.332977,219.955963 260.566589,223.693665 253.329193,223.954254 
	C248.525818,224.127197 243.714996,224.092819 238.907501,224.151245 
	C234.434860,224.420868 236.407928,220.980301 235.971710,218.071579 
	C235.961990,207.747803 235.898514,198.309921 235.835022,188.872055 
M250.923615,214.697998 
	C254.005493,214.499481 255.167496,212.762772 255.115128,209.789658 
	C254.999146,203.203415 255.001755,196.615082 255.005890,189.281311 
	C253.274323,185.412872 250.267227,186.074188 246.828613,186.865311 
	C246.828613,195.336639 246.720551,203.607727 246.976318,211.867554 
	C247.005646,212.814880 249.067154,213.699265 250.923615,214.697998 
z"/>
<path fill="#3C3737" opacity="1.000000" stroke="none" 
	d="
M211.166702,224.764252 
	C205.062012,221.890488 202.475220,217.063614 202.695892,210.357773 
	C202.914124,203.726364 202.818939,197.081116 202.722534,190.443939 
	C202.636047,184.487869 204.213699,179.339783 210.305695,177.270218 
	C217.027771,174.986633 223.726562,175.024200 229.443481,180.170593 
	C230.410934,181.041489 231.081955,182.241653 231.992615,184.003250 
	C232.341003,191.193909 232.764725,197.670074 232.798615,204.148285 
	C232.895004,222.574173 229.506378,225.739426 211.166702,224.764252 
M216.546463,215.425659 
	C218.311844,214.441742 221.579437,213.495071 221.604889,212.468002 
	C221.808502,204.256958 221.398621,196.030716 221.078018,187.100174 
	C216.480759,183.978287 213.419342,185.231155 213.247818,190.570404 
	C213.035034,197.194443 213.023560,203.838257 213.322021,210.455627 
	C213.392380,212.015121 215.050827,213.502975 216.546463,215.425659 
z"/>
<path fill="#3C3737" opacity="1.000000" stroke="none" 
	d="
M205.706299,279.828796 
	C205.706299,276.747223 205.706299,273.665649 205.706299,269.181488 
	C209.611877,270.165405 212.978439,271.013550 216.302551,272.772461 
	C216.232269,283.321106 216.022202,292.964752 216.328568,302.592010 
	C216.390778,304.547394 218.399872,306.440826 219.511475,308.362823 
	C224.098373,309.345123 224.958649,306.609039 224.954178,302.949310 
	C224.940994,292.154938 224.949478,281.360535 224.949478,270.293945 
	C228.526657,270.293945 231.788940,270.293945 236.229156,270.293945 
	C236.229156,274.642548 236.229309,279.053650 236.229126,283.464752 
	C236.228836,290.125977 236.266022,296.787476 236.218323,303.448364 
	C236.158981,311.736115 232.449310,316.810974 225.579559,318.136047 
	C215.619019,320.057281 209.521851,317.117767 206.091583,307.926270 
	C205.961945,298.016937 205.834122,288.922852 205.706299,279.828796 
z"/>
<path fill="#3D3838" opacity="1.000000" stroke="none" 
	d="
M275.839661,317.287964 
	C274.008484,315.712738 272.177338,314.137512 270.199493,312.067078 
	C270.012878,311.234283 269.826233,311.032043 269.318054,310.525208 
	C268.883270,307.081055 268.623291,304.076813 268.358917,301.021393 
	C272.460114,301.021393 275.727844,301.021393 278.991394,301.443939 
	C279.089325,303.017670 278.799103,304.444092 279.374023,305.263550 
	C280.624481,307.045929 282.316162,308.518677 283.827515,310.118011 
	C285.177887,308.376160 287.787506,306.465302 287.581757,304.932281 
	C287.277649,302.666046 285.406036,299.960114 283.408600,298.738678 
	C281.008179,297.270813 277.775482,297.163910 274.612488,296.262573 
	C268.350037,293.102051 268.369873,287.482056 268.312317,281.735107 
	C269.043945,279.319977 269.534790,277.173187 270.025665,275.026428 
	C277.416656,266.173920 290.805634,266.802551 297.881073,277.082123 
	C297.985352,280.501709 297.985352,283.168549 297.985352,285.907410 
	C295.202515,286.157379 292.972931,286.357697 290.344604,286.454712 
	C289.003448,284.201080 288.061035,282.050751 287.079163,279.526611 
	C285.199982,276.161011 282.728790,276.195251 280.380585,278.209625 
	C277.908264,280.330444 278.883423,285.358307 282.306030,288.201172 
	C285.739502,289.252014 288.878174,290.087524 292.016876,290.923004 
	C293.985138,292.704803 295.953430,294.486633 298.027527,297.030823 
	C298.171448,300.122284 298.280823,302.452759 298.234802,304.780182 
	C298.072083,313.006775 294.034851,317.381775 285.717712,317.891144 
	C282.449585,318.091309 279.133759,317.512207 275.839661,317.287964 
z"/>
<path fill="#3C3737" opacity="1.000000" stroke="none" 
	d="
M269.253143,188.692520 
	C270.739197,180.546936 273.451050,177.533966 280.455902,176.245819 
	C288.619019,174.744659 294.759888,177.341293 299.101501,184.912628 
	C299.105042,188.065430 299.105042,190.434067 299.105042,192.763702 
	C296.159454,193.119766 293.920685,193.390396 291.294861,193.527985 
	C289.974701,191.233368 289.041595,189.071808 288.071716,186.536041 
	C286.206085,183.159592 283.735962,183.202972 281.388184,185.206284 
	C278.928009,187.305481 279.880096,192.317001 283.276093,195.240051 
	C286.718323,196.278275 289.868042,197.096451 293.017731,197.914612 
	C294.968445,199.707718 296.919159,201.500809 298.993317,204.056183 
	C299.157013,207.146912 299.270294,209.476807 299.224274,211.803543 
	C299.061859,220.013580 295.011505,224.379898 286.686554,224.888321 
	C283.420807,225.087784 280.109161,224.535889 276.818420,224.326172 
	C274.563904,221.805466 272.309387,219.284760 270.027039,215.968964 
	C269.993408,212.735596 269.987640,210.297333 270.427368,207.796173 
	C273.554871,207.669586 276.236877,207.605881 279.259155,207.797348 
	C279.915131,209.988922 279.779419,212.178375 280.680878,213.786392 
	C281.488007,215.226105 283.378632,216.745667 284.902863,216.870865 
	C286.048035,216.964920 288.050537,215.121613 288.482819,213.762695 
	C289.664795,210.046997 288.662231,206.845596 284.479187,205.594818 
	C281.343994,204.657333 278.139618,203.951340 274.729553,202.904633 
	C272.968414,200.801132 271.443756,198.935272 269.955139,196.603607 
	C269.745209,193.656021 269.499176,191.174271 269.253143,188.692520 
z"/>
<path fill="#3B3636" opacity="1.000000" stroke="none" 
	d="
M241.910507,317.158203 
	C240.926376,316.433472 239.091934,315.718323 239.083633,314.982574 
	C238.916046,300.118927 238.958145,285.252930 238.958145,270.025238 
	C247.381653,270.025238 255.306595,269.961029 263.227020,270.120850 
	C264.052551,270.137482 264.851349,271.481415 265.585724,272.955078 
	C265.323608,275.425659 265.138367,277.150665 264.897186,279.396240 
	C259.675598,279.396240 254.832291,279.396240 249.473602,279.396240 
	C249.473602,281.903442 249.523666,283.841553 249.461365,285.776062 
	C249.376633,288.407349 250.584442,289.378723 253.556580,288.850037 
	C255.907410,288.899933 257.904633,288.569702 259.692291,289.038574 
	C260.736115,289.312347 261.444885,290.863434 262.229797,292.292297 
	C262.058411,294.358093 261.961639,295.971436 261.833923,298.100830 
	C257.867737,298.100830 254.140182,298.100830 249.801834,298.100830 
	C249.801834,300.716095 249.414932,302.923645 249.950287,304.878632 
	C250.260010,306.009705 252.055710,306.733826 253.629868,307.694153 
	C256.346771,307.753510 258.642853,307.979706 260.879486,307.711029 
	C263.729889,307.368530 265.297699,308.411530 265.783325,311.595551 
	C265.654480,313.585419 265.558594,315.154358 265.436157,317.158203 
	C257.286987,317.158203 249.598740,317.158203 241.910507,317.158203 
z"/>
<path fill="#3D3939" opacity="1.000000" stroke="none" 
	d="
M312.931030,317.107697 
	C310.242401,317.374207 310.184753,315.713287 310.197845,313.679291 
	C310.261993,303.731323 310.219666,293.782654 310.243103,282.949646 
	C309.347931,276.787567 305.348175,280.085144 302.784760,279.379120 
	C302.381775,279.346802 301.978760,279.314514 301.300415,278.802124 
	C300.918640,277.823090 300.812256,277.324188 300.705841,276.825256 
	C300.705841,274.691711 300.705841,272.558167 300.705841,270.024445 
	C310.326813,270.024445 319.595245,269.981110 328.861023,270.117279 
	C329.512665,270.126862 330.144775,271.462189 330.817261,273.024597 
	C330.748383,275.477875 330.648224,277.087616 330.532013,278.955261 
	C327.333862,279.153107 324.432739,279.332581 320.944397,279.548370 
	C320.944397,292.119202 320.944397,304.433441 320.944397,317.107697 
	C317.865204,317.107697 315.398132,317.107697 312.931030,317.107697 
z"/>
<path fill="#B0AEAE" opacity="1.000000" stroke="none" 
	d="
M268.975098,188.660751 
	C269.499176,191.174271 269.745209,193.656021 269.631653,196.843262 
	C269.508698,200.985519 269.745300,204.422287 269.981873,207.859055 
	C269.987640,210.297333 269.993408,212.735596 269.946899,215.628052 
	C269.295105,217.026260 268.458862,217.896378 268.136932,218.927139 
	C266.738831,223.403717 263.529419,226.158035 259.169403,226.577545 
	C253.062073,227.165192 246.868591,226.915649 240.713638,226.854614 
	C240.132523,226.848862 239.563416,225.634644 238.948120,224.566360 
	C243.714996,224.092819 248.525818,224.127197 253.329193,223.954254 
	C260.566589,223.693665 265.332977,219.955963 265.665802,212.909012 
	C266.094238,203.838089 265.461761,194.717026 265.372437,185.197998 
	C266.538086,186.061966 267.617554,187.345474 268.975098,188.660751 
z"/>
<path fill="#AFADAD" opacity="1.000000" stroke="none" 
	d="
M313.016113,317.505432 
	C315.398132,317.107697 317.865204,317.107697 320.944397,317.107697 
	C320.944397,304.433441 320.944397,292.119202 320.944397,279.548370 
	C324.432739,279.332581 327.333862,279.153107 330.532013,278.955261 
	C330.648224,277.087616 330.748383,275.477875 330.922302,273.435577 
	C336.994324,274.284821 332.437195,278.604004 334.084290,281.786591 
	C330.531738,282.008636 327.628235,282.190125 324.164062,282.406677 
	C324.164062,294.805786 324.164062,307.035187 324.164062,320.002869 
	C320.071014,318.944946 316.059998,322.508728 313.016113,317.505432 
z"/>
<path fill="#B5B3B3" opacity="1.000000" stroke="none" 
	d="
M211.203857,225.144470 
	C229.506378,225.739426 232.895004,222.574173 232.798615,204.148285 
	C232.764725,197.670074 232.341003,191.193909 232.170486,184.294800 
	C233.288712,185.391647 234.331726,186.910538 235.604889,188.650726 
	C235.898514,198.309921 235.961990,207.747803 235.928467,217.653839 
	C231.217834,228.071640 220.752487,231.222122 211.203857,225.144470 
z"/>
<path fill="#AAA8A8" opacity="1.000000" stroke="none" 
	d="
M205.400879,279.830627 
	C205.834122,288.922852 205.961945,298.016937 206.019226,307.578217 
	C204.624481,311.155273 203.300278,314.265137 201.924530,317.743622 
	C200.815567,317.123322 199.758163,316.134369 198.700775,315.145386 
	C199.145218,315.135895 199.589661,315.126404 200.034103,315.116943 
	C200.767654,310.660034 201.951538,306.221527 202.134323,301.742188 
	C202.446411,294.093872 202.130600,286.419891 202.193726,278.287903 
	C203.237762,278.490204 204.166611,279.161316 205.400879,279.830627 
z"/>
<path fill="#AEACAC" opacity="1.000000" stroke="none" 
	d="
M275.943359,317.625916 
	C279.133759,317.512207 282.449585,318.091309 285.717712,317.891144 
	C294.034851,317.381775 298.072083,313.006775 298.234802,304.780182 
	C298.280823,302.452759 298.171448,300.122284 298.192078,297.323822 
	C304.029541,302.356659 302.799957,315.322113 295.793671,318.839600 
	C289.250549,322.124512 282.443542,322.400574 275.943359,317.625916 
z"/>
<path fill="#A19F9F" opacity="1.000000" stroke="none" 
	d="
M219.531586,307.869873 
	C218.399872,306.440826 216.390778,304.547394 216.328568,302.592010 
	C216.022202,292.964752 216.232269,283.321106 216.352600,273.204468 
	C219.390503,272.797363 219.700043,274.617645 219.669357,277.076691 
	C219.543365,287.175690 219.576889,297.276672 219.531586,307.869873 
z"/>
<path fill="#ADABAB" opacity="1.000000" stroke="none" 
	d="
M276.908386,224.667755 
	C280.109161,224.535889 283.420807,225.087784 286.686554,224.888321 
	C295.011505,224.379898 299.061859,220.013580 299.224274,211.803543 
	C299.270294,209.476807 299.157013,207.146912 299.156067,204.348938 
	C304.823853,209.610260 303.057007,222.885315 295.821136,226.176086 
	C289.570740,229.018677 283.015930,229.478653 276.908386,224.667755 
z"/>
<path fill="#A9A7A7" opacity="1.000000" stroke="none" 
	d="
M253.114975,288.805450 
	C250.584442,289.378723 249.376633,288.407349 249.461365,285.776062 
	C249.523666,283.841553 249.473602,281.903442 249.473602,279.396240 
	C254.832291,279.396240 259.675598,279.396240 264.897186,279.396240 
	C265.138367,277.150665 265.323608,275.425659 265.696838,273.354431 
	C267.038086,273.617798 268.191437,274.227325 269.685211,274.931641 
	C269.534790,277.173187 269.043945,279.319977 267.840912,281.762909 
	C264.509308,282.064758 261.889832,282.073151 259.270386,282.075562 
	C252.457016,282.081879 252.457016,282.080841 253.114975,288.805450 
z"/>
<path fill="#B4B2B2" opacity="1.000000" stroke="none" 
	d="
M241.944794,317.574524 
	C249.598740,317.158203 257.286987,317.158203 265.436157,317.158203 
	C265.558594,315.154358 265.654480,313.585419 266.236298,311.504822 
	C267.645813,310.983826 268.569336,310.974487 269.492889,310.965149 
	C269.826233,311.032043 270.012878,311.234283 270.022583,311.789246 
	C269.392456,314.443146 268.792633,316.879639 268.036102,319.952576 
	C260.116882,319.952576 251.900101,319.992065 243.685776,319.868164 
	C243.107590,319.859467 242.547562,318.644714 241.944794,317.574524 
z"/>
<path fill="#EFEFEF" opacity="1.000000" stroke="none" 
	d="
M293.110107,197.695648 
	C289.868042,197.096451 286.718323,196.278275 283.245758,194.806595 
	C282.821228,190.428482 282.302734,186.405426 288.108459,186.910248 
	C289.041595,189.071808 289.974701,191.233368 291.350159,193.845673 
	C292.542297,194.972061 293.292114,195.647736 294.041931,196.323425 
	C293.762085,196.707840 293.482269,197.092255 293.110107,197.695648 
z"/>
<path fill="#EDEDED" opacity="1.000000" stroke="none" 
	d="
M292.107361,290.702271 
	C288.878174,290.087524 285.739502,289.252014 282.288544,287.784607 
	C281.845093,283.426819 281.844177,279.793335 287.118591,279.900421 
	C288.061035,282.050751 289.003448,284.201080 290.397522,286.778717 
	C291.582733,287.914307 292.316254,288.622559 293.049805,289.330811 
	C292.765808,289.714386 292.481812,290.097961 292.107361,290.702271 
z"/>
<path fill="#A8A5A5" opacity="1.000000" stroke="none" 
	d="
M293.490997,289.252014 
	C292.316254,288.622559 291.582733,287.914307 290.796265,286.882019 
	C292.972931,286.357697 295.202515,286.157379 297.985352,285.907410 
	C297.985352,283.168549 297.985352,280.501709 298.053406,277.373047 
	C298.768402,276.931122 299.415375,276.950958 300.384094,276.898041 
	C300.812256,277.324188 300.918640,277.823090 301.011902,278.708557 
	C300.998779,282.195435 300.998779,285.295807 300.998779,288.830688 
	C298.440277,288.954712 296.186249,289.063965 293.490997,289.252014 
z"/>
<path fill="#A3A1A1" opacity="1.000000" stroke="none" 
	d="
M294.483459,196.239380 
	C293.292114,195.647736 292.542297,194.972061 291.737213,193.978699 
	C293.920685,193.390396 296.159454,193.119766 299.105042,192.763702 
	C299.105042,190.434067 299.105042,188.065430 299.223328,185.240356 
	C300.520966,188.158997 301.700348,191.534073 303.176331,195.758087 
	C299.350189,195.942307 297.137604,196.048828 294.483459,196.239380 
z"/>
<path fill="#BAB8B8" opacity="1.000000" stroke="none" 
	d="
M196.044098,324.440125 
	C198.742401,324.008728 201.520233,323.955444 204.764053,323.960632 
	C205.592133,324.888062 205.954208,325.757019 206.316299,326.626007 
	C202.840012,326.467316 198.928116,328.764679 196.044098,324.440125 
z"/>
<path fill="#A8A5A5" opacity="1.000000" stroke="none" 
	d="
M302.898682,279.721069 
	C305.348175,280.085144 309.347931,276.787567 310.199646,282.475464 
	C307.722748,282.029297 304.140930,284.138367 302.898682,279.721069 
z"/>
<path fill="#F2F2F2" opacity="1.000000" stroke="none" 
	d="
M190.994232,281.004395 
	C191.196762,289.094147 191.608459,297.190125 191.367157,305.266602 
	C191.332581,306.423615 188.143478,307.486389 186.149292,307.892151 
	C185.890549,300.384369 185.975418,293.576019 185.871140,286.770508 
	C185.815521,283.139862 187.163010,281.041748 190.994232,281.004395 
z"/>
<path fill="#ABAAAA" opacity="1.000000" stroke="none" 
	d="
M190.974854,280.649658 
	C187.163010,281.041748 185.815521,283.139862 185.871140,286.770508 
	C185.975418,293.576019 185.890549,300.384369 185.876831,307.670227 
	C184.939590,306.606232 183.278809,305.096649 183.207291,303.515198 
	C182.906601,296.866821 182.906128,290.189056 183.204514,283.540405 
	C183.278931,281.882416 184.528351,279.502563 185.879745,278.903900 
	C187.122421,278.353455 189.229294,279.753906 190.974854,280.649658 
z"/>
<path fill="#FDFDFD" opacity="1.000000" stroke="none" 
	d="
M254.955963,190.027603 
	C255.001755,196.615082 254.999146,203.203415 255.115128,209.789658 
	C255.167496,212.762772 254.005493,214.499481 250.486420,214.216492 
	C250.049225,205.890564 250.049225,198.046127 250.049225,190.027603 
	C252.053604,190.027603 253.504791,190.027603 254.955963,190.027603 
z"/>
<path fill="#B4B2B2" opacity="1.000000" stroke="none" 
	d="
M254.980927,189.654449 
	C253.504791,190.027603 252.053604,190.027603 250.049225,190.027603 
	C250.049225,198.046127 250.049225,205.890564 250.117828,214.173920 
	C249.067154,213.699265 247.005646,212.814880 246.976318,211.867554 
	C246.720551,203.607727 246.828613,195.336639 246.828613,186.865311 
	C250.267227,186.074188 253.274323,185.412872 254.980927,189.654449 
z"/>
<path fill="#F5F5F5" opacity="1.000000" stroke="none" 
	d="
M221.176636,187.809128 
	C221.398621,196.030716 221.808502,204.256958 221.604889,212.468002 
	C221.579437,213.495071 218.311844,214.441742 216.285400,214.754898 
	C216.029922,207.674683 216.134094,201.263245 216.003906,194.856552 
	C215.926605,191.051544 217.103851,188.437378 221.176636,187.809128 
z"/>
<path fill="#A3A1A1" opacity="1.000000" stroke="none" 
	d="
M221.127319,187.454651 
	C217.103851,188.437378 215.926605,191.051544 216.003906,194.856552 
	C216.134094,201.263245 216.029922,207.674683 216.001511,214.553955 
	C215.050827,213.502975 213.392380,212.015121 213.322021,210.455627 
	C213.023560,203.838257 213.035034,197.194443 213.247818,190.570404 
	C213.419342,185.231155 216.480759,183.978287 221.127319,187.454651 
z"/>
<path fill="#F9F9F9" opacity="1.000000" stroke="none" 
	d="
M269.318054,310.525208 
	C268.569336,310.974487 267.645813,310.983826 266.269287,311.083923 
	C265.297699,308.411530 263.729889,307.368530 260.879486,307.711029 
	C258.642853,307.979706 256.346771,307.753510 253.554581,307.274078 
	C253.032074,305.051453 253.032074,303.301880 253.032074,300.928772 
	C257.218842,300.928772 260.924286,300.928772 265.296600,300.928772 
	C263.727356,297.509277 267.929901,293.339203 262.304382,291.839874 
	C261.444885,290.863434 260.736115,289.312347 259.692291,289.038574 
	C257.904633,288.569702 255.907410,288.899933 253.556580,288.850037 
	C252.457016,282.080841 252.457016,282.081879 259.270386,282.075562 
	C261.889832,282.073151 264.509308,282.064758 267.600159,282.031311 
	C268.369873,287.482056 268.350037,293.102051 274.661652,296.590271 
	C276.332855,298.422577 277.664215,299.721985 278.995575,301.021393 
	C275.727844,301.021393 272.460114,301.021393 268.358917,301.021393 
	C268.623291,304.076813 268.883270,307.081055 269.318054,310.525208 
z"/>
<path fill="#D7D6D6" opacity="1.000000" stroke="none" 
	d="
M278.991394,301.443939 
	C277.664215,299.721985 276.332855,298.422577 274.952332,296.795471 
	C277.775482,297.163910 281.008179,297.270813 283.408600,298.738678 
	C285.406036,299.960114 287.277649,302.666046 287.581757,304.932281 
	C287.787506,306.465302 285.177887,308.376160 283.827515,310.118011 
	C282.316162,308.518677 280.624481,307.045929 279.374023,305.263550 
	C278.799103,304.444092 279.089325,303.017670 278.991394,301.443939 
z"/>
<path fill="#A9A7A7" opacity="1.000000" stroke="none" 
	d="
M287.079163,279.526611 
	C281.844177,279.793335 281.845093,283.426819 281.993774,287.569244 
	C278.883423,285.358307 277.908264,280.330444 280.380585,278.209625 
	C282.728790,276.195251 285.199982,276.161011 287.079163,279.526611 
z"/>
<path fill="#DBDADA" opacity="1.000000" stroke="none" 
	d="
M274.966034,203.142273 
	C278.139618,203.951340 281.343994,204.657333 284.479187,205.594818 
	C288.662231,206.845596 289.664795,210.046997 288.482819,213.762695 
	C288.050537,215.121613 286.048035,216.964920 284.902863,216.870865 
	C283.378632,216.745667 281.488007,215.226105 280.680878,213.786392 
	C279.779419,212.178375 279.915131,209.988922 279.177856,207.501007 
	C277.492828,205.680420 276.229431,204.411346 274.966034,203.142273 
z"/>
<path fill="#FDFDFD" opacity="1.000000" stroke="none" 
	d="
M274.729553,202.904633 
	C276.229431,204.411346 277.492828,205.680420 278.837555,207.245834 
	C276.236877,207.605881 273.554871,207.669586 270.427368,207.796173 
	C269.745300,204.422287 269.508698,200.985519 269.595581,197.309082 
	C271.443756,198.935272 272.968414,200.801132 274.729553,202.904633 
z"/>
<path fill="#AAA8A8" opacity="1.000000" stroke="none" 
	d="
M288.071716,186.536041 
	C282.302734,186.405426 282.821228,190.428482 282.953217,194.586548 
	C279.880096,192.317001 278.928009,187.305481 281.388184,185.206284 
	C283.735962,183.202972 286.206085,183.159592 288.071716,186.536041 
z"/>
<path fill="#AEACAC" opacity="1.000000" stroke="none" 
	d="
M262.229797,292.292297 
	C267.929901,293.339203 263.727356,297.509277 265.296600,300.928772 
	C260.924286,300.928772 257.218842,300.928772 253.032074,300.928772 
	C253.032074,303.301880 253.032074,305.051453 253.107361,307.221069 
	C252.055710,306.733826 250.260010,306.009705 249.950287,304.878632 
	C249.414932,302.923645 249.801834,300.716095 249.801834,298.100830 
	C254.140182,298.100830 257.867737,298.100830 261.833923,298.100830 
	C261.961639,295.971436 262.058411,294.358093 262.229797,292.292297 
z"/>
</svg>